<svg xmlns="http://www.w3.org/2000/svg" viewBox="0 0 287.75 408.58"><defs><style>.cls-1{fill:#e94057;}</style></defs><title>Recurso 1</title><g id="Capa_2" data-name="Capa 2"><g id="Capa_1-2" data-name="Capa 1"><path class="cls-1" d="M142.29,408.58c-4.87-2.63-7.57-7.13-10.37-11.64Q77.79,309.7,23.49,222.56c-18-28.84-26.22-60-22.68-93.83A140.31,140.31,0,0,1,35.27,49.64,143.57,143.57,0,0,1,166.7,1.9c35.36,5.75,64.56,22.56,87.57,49.76a138.88,138.88,0,0,1,32,71.42c4.94,34.66-2.2,66.77-20.17,96.68q-53.81,89.52-107.48,179.11c-2.5,4.18-5.22,7.86-9.88,9.71Zm3.52-35c34.35-57.34,68.52-114.16,102.45-171.13A110.92,110.92,0,0,0,263.67,149c1.1-30.27-7.68-57.52-27-80.95-20.72-25.15-47.54-39.85-80-43.31S94.55,29.83,69,50.36C43.19,71.06,28.39,98.16,24.73,131c-3.14,28.26,3.74,54.21,18.77,78.28q50.06,80.15,99.82,160.48C144,370.89,144.77,372,145.81,373.54Z"/><path class="cls-1" d="M144.09,71.77c39.46.15,71.79,32.43,71.77,71.63,0,39.81-32.51,72.22-72.15,72-39.84-.2-72.1-32.74-71.78-72.4C72.25,103.68,104.74,71.61,144.09,71.77Zm-.28,119.7a48,48,0,0,0,48.05-47.89c.12-26.07-21.43-47.71-47.68-47.87-26.4-.15-48.28,21.46-48.26,47.69A48.06,48.06,0,0,0,143.81,191.47Z"/></g></g></svg>