<svg xmlns="http://www.w3.org/2000/svg" viewBox="0 0 408.59 408.34"><defs><style>.cls-1{fill:#e94057;}</style></defs><title>Recurso 2</title><g id="Capa_2" data-name="Capa 2"><g id="Capa_1-2" data-name="Capa 1"><path class="cls-1" d="M239.44,408.34c-5-2.47-7.55-6.93-9.9-11.79q-34.47-71.4-69.11-142.73a11.85,11.85,0,0,0-5.92-5.92Q83.13,213.42,11.78,178.79C6.92,176.45,2.49,173.92,0,168.9v-7.18c3.18-5.75,8.82-7.87,14.5-10.14q187.55-75,375.05-150c9.14-3.66,16.32-.88,18.64,7.12,1,3.59-.14,6.81-1.42,10q-29.14,72.91-58.33,145.8-46.53,116.28-93,232.58c-2.09,5.24-4.77,9.51-10.43,11.23ZM362.26,63.45a19.74,19.74,0,0,0-1.83,1.45Q272.25,153.06,184,241.19c-1.7,1.69-1.84,2.89-.8,5C189.58,259,195.74,272,202,284.83q19.69,40.6,39.43,81.24c1.45-1,1.57-2.56,2.1-3.87q45.39-113.29,90.73-226.62,14.33-35.81,28.48-71.68c.31-.37.56-.74.08-1.16ZM344.44,45.61c-1.25.43-2.52.82-3.75,1.31q-147.46,59-294.93,118c-1.18.47-2.64.54-3.43,1.94,1.07.54,2.11,1.09,3.17,1.61q58,28.11,115.91,56.29c2.71,1.33,4.17,1.12,6.33-1Q255,136.32,342.33,49c.92-.92,1.71-2,2.56-3l.71-.55C345.18,45.05,344.81,45.3,344.44,45.61Z"/><path class="cls-1" d="M344.44,45.61c.37-.31.74-.56,1.16-.08l-.71.55Z"/><path class="cls-1" d="M362.26,63.45l.55-.71c.48.42.23.79-.08,1.16C362.57,63.76,362.42,63.61,362.26,63.45Z"/></g></g></svg>